<?xml version="1.0" encoding="iso-8859-1"?> <svg fill="#c9a975" height="800px" width="800px" version="1.1" id="Layer_1" xmlns="http://www.w3.org/2000/svg" xmlns:xlink="http://www.w3.org/1999/xlink" viewBox="0 0 512 512" xml:space="preserve"> <g> <g> <path d="M256.001,54.522c-26.043,0-47.691,19.333-51.578,44.304c15.723-3.156,31.979-4.663,48.619-4.663h5.917 c16.639,0,32.896,1.452,48.62,4.608C303.692,73.801,282.043,54.522,256.001,54.522z"/> </g> </g> <g> <g> <path d="M258.959,119.931h-5.917c-121.767,0-221.215,98.636-221.215,220.404v41.132h0.001h448.346v-41.132 C480.174,218.566,380.727,119.931,258.959,119.931z"/> </g> </g> <g> <g> <path d="M505.558,423.587c-1.951-1.75-4.252-3.365-6.795-4.21c-1.916,0.636-3.959,0.74-6.089,0.74H19.325 c-2.13,0-4.173-0.103-6.089-0.74c-2.543,0.845-4.844,2.333-6.795,4.083C2.497,426.998,0,432.277,0,437.994 c0,10.673,8.653,19.484,19.325,19.484h473.349c10.673,0,19.325-8.748,19.325-19.421C512,432.342,509.503,427.125,505.558,423.587z "/> </g> </g> </svg>